STARTFONT 2.1
FONT -FontForge-Avenir Next Demi Bold-Demi-R-Normal--12-120-75-75-P-65-ISO10646-1
SIZE 12 75 75
FONTBOUNDINGBOX 13 13 -1 -3
COMMENT "Generated by fontforge, http://fontforge.sourceforge.net"
COMMENT "Copyright (c) 2004 - 2007 Linotype GmbH, www.linotype.com. All rights reserved."
STARTPROPERTIES 39
FOUNDRY "FontForge"
FAMILY_NAME "Avenir Next Demi Bold"
WEIGHT_NAME "Demi"
SLANT "R"
SETWIDTH_NAME "Normal"
ADD_STYLE_NAME ""
PIXEL_SIZE 12
POINT_SIZE 120
RESOLUTION_X 75
RESOLUTION_Y 75
SPACING "P"
AVERAGE_WIDTH 65
CHARSET_REGISTRY "ISO10646"
CHARSET_ENCODING "1"
FONTNAME_REGISTRY ""
CHARSET_COLLECTIONS "ISO10646-1"
FONT_NAME "AvenirNext-DemiBold"
FACE_NAME "Avenir Next Demi Bold"
COPYRIGHT "Copyright (c) 2004 - 2007 Linotype GmbH, www.linotype.com. All rights reserved."
FONT_VERSION "13.0d1e10"
FONT_ASCENT 10
FONT_DESCENT 2
UNDERLINE_POSITION -1
UNDERLINE_THICKNESS 1
X_HEIGHT 5
CAP_HEIGHT 7
RAW_ASCENT 800
RAW_DESCENT 200
NORM_SPACE 3
RELATIVE_WEIGHT 60
RELATIVE_SETWIDTH 50
SUPERSCRIPT_X 0
SUPERSCRIPT_Y 5
SUPERSCRIPT_SIZE 7
SUBSCRIPT_X 0
SUBSCRIPT_Y 1
SUBSCRIPT_SIZE 7
AVG_LOWERCASE_WIDTH 62
AVG_UPPERCASE_WIDTH 79
ENDPROPERTIES
CHARS 95
STARTCHAR space
ENCODING 32
SWIDTH 250 0
DWIDTH 3 0
BBX 1 1 0 0
BITMAP
00
ENDCHAR
STARTCHAR exclam
ENCODING 33
SWIDTH 340 0
DWIDTH 4 0
BBX 1 8 2 0
BITMAP
80
80
80
80
80
80
00
80
ENDCHAR
STARTCHAR quotedbl
ENCODING 34
SWIDTH 459 0
DWIDTH 5 0
BBX 3 3 1 5
BITMAP
A0
A0
A0
ENDCHAR
STARTCHAR numbersign
ENCODING 35
SWIDTH 592 0
DWIDTH 7 0
BBX 6 8 1 0
BITMAP
68
48
FC
50
F8
50
D0
90
ENDCHAR
STARTCHAR dollar
ENCODING 36
SWIDTH 610 0
DWIDTH 7 0
BBX 7 10 0 -1
BITMAP
10
3C
56
50
78
1C
14
54
F8
10
ENDCHAR
STARTCHAR percent
ENCODING 37
SWIDTH 930 0
DWIDTH 12 0
BBX 10 9 1 0
BITMAP
0200
6300
9400
9400
6800
0B80
1440
3440
2380
ENDCHAR
STARTCHAR ampersand
ENCODING 38
SWIDTH 741 0
DWIDTH 9 0
BBX 8 8 1 0
BITMAP
70
88
88
70
F6
9C
8C
77
ENDCHAR
STARTCHAR quotesingle
ENCODING 39
SWIDTH 282 0
DWIDTH 3 0
BBX 1 3 1 5
BITMAP
80
80
80
ENDCHAR
STARTCHAR parenleft
ENCODING 40
SWIDTH 330 0
DWIDTH 4 0
BBX 3 11 0 -2
BITMAP
20
40
40
C0
80
80
80
C0
40
40
20
ENDCHAR
STARTCHAR parenright
ENCODING 41
SWIDTH 330 0
DWIDTH 4 0
BBX 2 11 1 -2
BITMAP
80
80
40
40
40
40
40
40
40
80
80
ENDCHAR
STARTCHAR asterisk
ENCODING 42
SWIDTH 463 0
DWIDTH 6 0
BBX 5 4 0 4
BITMAP
20
F8
70
50
ENDCHAR
STARTCHAR plus
ENCODING 43
SWIDTH 666 0
DWIDTH 8 0
BBX 7 7 0 0
BITMAP
10
10
10
FE
10
10
10
ENDCHAR
STARTCHAR comma
ENCODING 44
SWIDTH 260 0
DWIDTH 3 0
BBX 2 3 0 -1
BITMAP
40
C0
80
ENDCHAR
STARTCHAR hyphen
ENCODING 45
SWIDTH 320 0
DWIDTH 4 0
BBX 3 1 0 2
BITMAP
E0
ENDCHAR
STARTCHAR period
ENCODING 46
SWIDTH 260 0
DWIDTH 3 0
BBX 1 1 1 0
BITMAP
80
ENDCHAR
STARTCHAR slash
ENCODING 47
SWIDTH 389 0
DWIDTH 5 0
BBX 5 9 0 -1
BITMAP
18
10
30
20
20
40
40
C0
80
ENDCHAR
STARTCHAR zero
ENCODING 48
SWIDTH 610 0
DWIDTH 7 0
BBX 5 8 1 0
BITMAP
70
88
88
88
88
88
88
70
ENDCHAR
STARTCHAR one
ENCODING 49
SWIDTH 610 0
DWIDTH 7 0
BBX 4 8 1 0
BITMAP
30
70
D0
10
10
10
10
10
ENDCHAR
STARTCHAR two
ENCODING 50
SWIDTH 610 0
DWIDTH 7 0
BBX 5 8 1 0
BITMAP
70
C8
08
08
10
60
C0
F8
ENDCHAR
STARTCHAR three
ENCODING 51
SWIDTH 610 0
DWIDTH 7 0
BBX 5 8 1 0
BITMAP
78
C8
08
30
08
08
88
70
ENDCHAR
STARTCHAR four
ENCODING 52
SWIDTH 610 0
DWIDTH 7 0
BBX 6 8 0 0
BITMAP
18
18
28
68
C8
FC
08
08
ENDCHAR
STARTCHAR five
ENCODING 53
SWIDTH 610 0
DWIDTH 7 0
BBX 5 8 1 0
BITMAP
F8
C0
C0
F0
08
08
88
70
ENDCHAR
STARTCHAR six
ENCODING 54
SWIDTH 610 0
DWIDTH 7 0
BBX 5 8 1 0
BITMAP
30
20
60
F0
88
88
88
70
ENDCHAR
STARTCHAR seven
ENCODING 55
SWIDTH 610 0
DWIDTH 8 0
BBX 6 8 1 0
BITMAP
FC
0C
08
18
10
30
20
60
ENDCHAR
STARTCHAR eight
ENCODING 56
SWIDTH 610 0
DWIDTH 7 0
BBX 5 8 1 0
BITMAP
70
88
88
70
88
88
88
70
ENDCHAR
STARTCHAR nine
ENCODING 57
SWIDTH 610 0
DWIDTH 7 0
BBX 5 8 1 0
BITMAP
70
88
88
88
78
10
30
60
ENDCHAR
STARTCHAR colon
ENCODING 58
SWIDTH 300 0
DWIDTH 3 0
BBX 1 6 1 0
BITMAP
80
00
00
00
00
80
ENDCHAR
STARTCHAR semicolon
ENCODING 59
SWIDTH 300 0
DWIDTH 3 0
BBX 3 7 0 -1
BITMAP
40
00
00
00
60
40
C0
ENDCHAR
STARTCHAR less
ENCODING 60
SWIDTH 666 0
DWIDTH 8 0
BBX 6 6 1 1
BITMAP
04
18
E0
E0
18
04
ENDCHAR
STARTCHAR equal
ENCODING 61
SWIDTH 666 0
DWIDTH 8 0
BBX 6 3 1 2
BITMAP
FC
00
FC
ENDCHAR
STARTCHAR greater
ENCODING 62
SWIDTH 666 0
DWIDTH 8 0
BBX 6 6 1 1
BITMAP
80
60
1C
1C
60
80
ENDCHAR
STARTCHAR question
ENCODING 63
SWIDTH 519 0
DWIDTH 7 0
BBX 5 8 1 0
BITMAP
78
48
88
10
20
20
00
20
ENDCHAR
STARTCHAR at
ENCODING 64
SWIDTH 800 0
DWIDTH 10 0
BBX 9 8 0 0
BITMAP
3E00
4D00
9280
9280
9280
9F00
4100
3E00
ENDCHAR
STARTCHAR A
ENCODING 65
SWIDTH 706 0
DWIDTH 8 0
BBX 9 8 0 0
BITMAP
1800
1C00
3400
2600
2600
7E00
4300
C180
ENDCHAR
STARTCHAR B
ENCODING 66
SWIDTH 647 0
DWIDTH 8 0
BBX 6 8 1 0
BITMAP
F8
84
84
F8
84
84
84
F8
ENDCHAR
STARTCHAR C
ENCODING 67
SWIDTH 696 0
DWIDTH 8 0
BBX 7 8 1 0
BITMAP
7C
C6
80
80
80
80
C4
7E
ENDCHAR
STARTCHAR D
ENCODING 68
SWIDTH 764 0
DWIDTH 9 0
BBX 7 8 1 0
BITMAP
F8
84
82
82
82
82
84
F8
ENDCHAR
STARTCHAR E
ENCODING 69
SWIDTH 610 0
DWIDTH 7 0
BBX 5 8 1 0
BITMAP
F8
80
80
F8
80
80
80
F8
ENDCHAR
STARTCHAR F
ENCODING 70
SWIDTH 573 0
DWIDTH 7 0
BBX 5 8 1 0
BITMAP
F8
80
80
F8
80
80
80
80
ENDCHAR
STARTCHAR G
ENCODING 71
SWIDTH 773 0
DWIDTH 9 0
BBX 7 8 1 0
BITMAP
3E
44
80
8E
82
82
42
3E
ENDCHAR
STARTCHAR H
ENCODING 72
SWIDTH 739 0
DWIDTH 8 0
BBX 6 8 1 0
BITMAP
84
84
84
FC
84
84
84
84
ENDCHAR
STARTCHAR I
ENCODING 73
SWIDTH 282 0
DWIDTH 3 0
BBX 1 8 1 0
BITMAP
80
80
80
80
80
80
80
80
ENDCHAR
STARTCHAR J
ENCODING 74
SWIDTH 498 0
DWIDTH 6 0
BBX 5 8 0 0
BITMAP
08
08
08
08
08
08
48
F0
ENDCHAR
STARTCHAR K
ENCODING 75
SWIDTH 689 0
DWIDTH 8 0
BBX 7 8 1 0
BITMAP
8E
98
B0
E0
A0
B0
98
8E
ENDCHAR
STARTCHAR L
ENCODING 76
SWIDTH 511 0
DWIDTH 6 0
BBX 5 8 1 0
BITMAP
80
80
80
80
80
80
80
F8
ENDCHAR
STARTCHAR M
ENCODING 77
SWIDTH 920 0
DWIDTH 11 0
BBX 9 8 1 0
BITMAP
E380
E380
E380
B680
B680
9480
9C80
8880
ENDCHAR
STARTCHAR N
ENCODING 78
SWIDTH 780 0
DWIDTH 9 0
BBX 7 8 1 0
BITMAP
C2
E2
F2
B2
9A
9E
8E
86
ENDCHAR
STARTCHAR O
ENCODING 79
SWIDTH 849 0
DWIDTH 10 0
BBX 8 8 1 0
BITMAP
3C
42
81
81
81
81
42
3C
ENDCHAR
STARTCHAR P
ENCODING 80
SWIDTH 610 0
DWIDTH 7 0
BBX 5 8 1 0
BITMAP
F8
88
88
F0
80
80
80
80
ENDCHAR
STARTCHAR Q
ENCODING 81
SWIDTH 852 0
DWIDTH 10 0
BBX 10 8 0 0
BITMAP
3E00
4100
8080
8080
8080
8080
4180
3FC0
ENDCHAR
STARTCHAR R
ENCODING 82
SWIDTH 629 0
DWIDTH 8 0
BBX 7 8 1 0
BITMAP
F8
84
84
F8
98
98
8C
86
ENDCHAR
STARTCHAR S
ENCODING 83
SWIDTH 574 0
DWIDTH 7 0
BBX 5 8 1 0
BITMAP
78
90
80
F0
38
08
88
F8
ENDCHAR
STARTCHAR T
ENCODING 84
SWIDTH 568 0
DWIDTH 7 0
BBX 7 8 0 0
BITMAP
FE
10
10
10
10
10
10
10
ENDCHAR
STARTCHAR U
ENCODING 85
SWIDTH 714 0
DWIDTH 8 0
BBX 6 8 1 0
BITMAP
84
84
84
84
84
84
84
78
ENDCHAR
STARTCHAR V
ENCODING 86
SWIDTH 653 0
DWIDTH 8 0
BBX 8 8 0 0
BITMAP
C3
42
46
64
24
2C
18
18
ENDCHAR
STARTCHAR W
ENCODING 87
SWIDTH 1004 0
DWIDTH 12 0
BBX 12 8 0 0
BITMAP
C630
4630
4F20
6D60
6960
29C0
38C0
30C0
ENDCHAR
STARTCHAR X
ENCODING 88
SWIDTH 658 0
DWIDTH 8 0
BBX 8 8 0 0
BITMAP
C6
64
3C
18
38
3C
66
C3
ENDCHAR
STARTCHAR Y
ENCODING 89
SWIDTH 622 0
DWIDTH 7 0
BBX 7 8 0 0
BITMAP
C6
44
28
38
10
10
10
10
ENDCHAR
STARTCHAR Z
ENCODING 90
SWIDTH 611 0
DWIDTH 7 0
BBX 7 8 0 0
BITMAP
FE
06
0C
18
30
60
60
FE
ENDCHAR
STARTCHAR bracketleft
ENCODING 91
SWIDTH 330 0
DWIDTH 4 0
BBX 2 11 1 -2
BITMAP
C0
80
80
80
80
80
80
80
80
80
C0
ENDCHAR
STARTCHAR backslash
ENCODING 92
SWIDTH 389 0
DWIDTH 5 0
BBX 5 10 0 -1
BITMAP
80
C0
40
40
20
20
30
10
10
08
ENDCHAR
STARTCHAR bracketright
ENCODING 93
SWIDTH 330 0
DWIDTH 4 0
BBX 2 11 1 -2
BITMAP
C0
40
40
40
40
40
40
40
40
40
C0
ENDCHAR
STARTCHAR asciicircum
ENCODING 94
SWIDTH 666 0
DWIDTH 8 0
BBX 6 4 1 4
BITMAP
30
30
48
CC
ENDCHAR
STARTCHAR underscore
ENCODING 95
SWIDTH 500 0
DWIDTH 6 0
BBX 6 1 0 -2
BITMAP
FC
ENDCHAR
STARTCHAR grave
ENCODING 96
SWIDTH 260 0
DWIDTH 3 0
BBX 3 1 -1 7
BITMAP
E0
ENDCHAR
STARTCHAR a
ENCODING 97
SWIDTH 550 0
DWIDTH 6 0
BBX 5 6 0 0
BITMAP
70
88
78
88
88
78
ENDCHAR
STARTCHAR b
ENCODING 98
SWIDTH 635 0
DWIDTH 8 0
BBX 6 9 1 0
BITMAP
80
80
80
F8
C4
84
84
C4
F8
ENDCHAR
STARTCHAR c
ENCODING 99
SWIDTH 488 0
DWIDTH 6 0
BBX 5 6 1 0
BITMAP
70
88
80
80
80
70
ENDCHAR
STARTCHAR d
ENCODING 100
SWIDTH 634 0
DWIDTH 7 0
BBX 5 9 1 0
BITMAP
08
08
08
78
88
88
88
88
78
ENDCHAR
STARTCHAR e
ENCODING 101
SWIDTH 574 0
DWIDTH 7 0
BBX 5 6 1 0
BITMAP
70
88
88
F8
90
78
ENDCHAR
STARTCHAR f
ENCODING 102
SWIDTH 324 0
DWIDTH 4 0
BBX 4 9 0 0
BITMAP
70
40
40
E0
40
40
40
40
40
ENDCHAR
STARTCHAR g
ENCODING 103
SWIDTH 632 0
DWIDTH 7 0
BBX 5 9 1 -3
BITMAP
78
88
88
88
88
78
08
88
F0
ENDCHAR
STARTCHAR h
ENCODING 104
SWIDTH 584 0
DWIDTH 7 0
BBX 5 9 1 0
BITMAP
80
80
80
F0
88
88
88
88
88
ENDCHAR
STARTCHAR i
ENCODING 105
SWIDTH 268 0
DWIDTH 3 0
BBX 1 8 1 0
BITMAP
80
00
80
80
80
80
80
80
ENDCHAR
STARTCHAR j
ENCODING 106
SWIDTH 268 0
DWIDTH 3 0
BBX 2 11 0 -3
BITMAP
40
00
40
40
40
40
40
40
40
40
C0
ENDCHAR
STARTCHAR k
ENCODING 107
SWIDTH 543 0
DWIDTH 7 0
BBX 5 10 1 0
BITMAP
80
80
80
80
98
B0
E0
E0
B0
98
ENDCHAR
STARTCHAR l
ENCODING 108
SWIDTH 268 0
DWIDTH 3 0
BBX 1 9 1 0
BITMAP
80
80
80
80
80
80
80
80
80
ENDCHAR
STARTCHAR m
ENCODING 109
SWIDTH 890 0
DWIDTH 11 0
BBX 9 6 1 0
BITMAP
FF00
8880
8880
8880
8880
8880
ENDCHAR
STARTCHAR n
ENCODING 110
SWIDTH 582 0
DWIDTH 7 0
BBX 5 6 1 0
BITMAP
F0
88
88
88
88
88
ENDCHAR
STARTCHAR o
ENCODING 111
SWIDTH 610 0
DWIDTH 7 0
BBX 5 6 1 0
BITMAP
70
88
88
88
88
70
ENDCHAR
STARTCHAR p
ENCODING 112
SWIDTH 633 0
DWIDTH 8 0
BBX 6 9 1 -3
BITMAP
F8
C4
84
84
C4
F8
80
80
80
ENDCHAR
STARTCHAR q
ENCODING 113
SWIDTH 632 0
DWIDTH 7 0
BBX 5 9 1 -3
BITMAP
78
88
88
88
88
78
08
08
08
ENDCHAR
STARTCHAR r
ENCODING 114
SWIDTH 364 0
DWIDTH 4 0
BBX 3 6 1 0
BITMAP
E0
80
80
80
80
80
ENDCHAR
STARTCHAR s
ENCODING 115
SWIDTH 444 0
DWIDTH 6 0
BBX 4 6 1 0
BITMAP
70
A0
E0
30
90
F0
ENDCHAR
STARTCHAR t
ENCODING 116
SWIDTH 340 0
DWIDTH 4 0
BBX 3 8 0 0
BITMAP
40
40
E0
40
40
40
40
60
ENDCHAR
STARTCHAR u
ENCODING 117
SWIDTH 582 0
DWIDTH 7 0
BBX 5 6 1 0
BITMAP
88
88
88
88
88
78
ENDCHAR
STARTCHAR v
ENCODING 118
SWIDTH 513 0
DWIDTH 6 0
BBX 6 6 0 0
BITMAP
CC
4C
48
78
30
30
ENDCHAR
STARTCHAR w
ENCODING 119
SWIDTH 804 0
DWIDTH 10 0
BBX 10 6 0 0
BITMAP
CCC0
4C80
5D80
7700
3300
3300
ENDCHAR
STARTCHAR x
ENCODING 120
SWIDTH 537 0
DWIDTH 6 0
BBX 6 6 0 0
BITMAP
CC
78
30
38
68
CC
ENDCHAR
STARTCHAR y
ENCODING 121
SWIDTH 513 0
DWIDTH 6 0
BBX 6 9 0 -3
BITMAP
CC
4C
68
68
30
30
30
20
E0
ENDCHAR
STARTCHAR z
ENCODING 122
SWIDTH 482 0
DWIDTH 6 0
BBX 5 6 0 0
BITMAP
78
18
30
60
60
F8
ENDCHAR
STARTCHAR braceleft
ENCODING 123
SWIDTH 330 0
DWIDTH 4 0
BBX 3 11 0 -2
BITMAP
60
40
40
40
40
C0
40
40
40
40
60
ENDCHAR
STARTCHAR bar
ENCODING 124
SWIDTH 222 0
DWIDTH 3 0
BBX 1 12 1 -3
BITMAP
80
80
80
80
80
80
80
80
80
80
80
80
ENDCHAR
STARTCHAR braceright
ENCODING 125
SWIDTH 330 0
DWIDTH 4 0
BBX 3 10 1 -2
BITMAP
C0
40
40
40
60
60
40
40
40
C0
ENDCHAR
STARTCHAR asciitilde
ENCODING 126
SWIDTH 666 0
DWIDTH 8 0
BBX 6 2 1 3
BITMAP
E8
9C
ENDCHAR
ENDFONT
